<mxfile host="app.diagrams.net" modified="2023-12-12T12:34:25.657Z" agent="Mozilla/5.0 (Windows NT 10.0; Win64; x64) AppleWebKit/537.36 (KHTML, like Gecko) Chrome/120.0.0.0 Safari/537.36" etag="LByyoIGopOky6hBKEt7c" version="22.1.7" type="github">
  <diagram name="Page-1" id="hbshEd7tYBGAl3NKgA-U">
    <mxGraphModel dx="2261" dy="2092" grid="1" gridSize="10" guides="1" tooltips="1" connect="1" arrows="1" fold="1" page="1" pageScale="1" pageWidth="827" pageHeight="1169" math="0" shadow="0">
      <root>
        <mxCell id="0" />
        <mxCell id="1" parent="0" />
        <mxCell id="7GQD_d2pGqWLkAmRUeYo-1" value="" style="rounded=0;whiteSpace=wrap;html=1;" vertex="1" parent="1">
          <mxGeometry x="-260" y="-110" width="1280" height="960" as="geometry" />
        </mxCell>
        <mxCell id="7GQD_d2pGqWLkAmRUeYo-2" value="" style="rounded=0;whiteSpace=wrap;html=1;" vertex="1" parent="1">
          <mxGeometry x="-260" y="-110" width="1280" height="70" as="geometry" />
        </mxCell>
      </root>
    </mxGraphModel>
  </diagram>
</mxfile>
